#!OML:ASF H:\Terrain\Patient Classification 1\Takeo\Monday\TakeoMonday.ASF
:FULLY-SPECIFIED
:DEGREES
1048
root 9.86998 17.2559 -0.863595 5.78548 7.955 -0.442844
lowerback 19.6643 -0.696203 4.47468
upperback 7.44104 -0.00989176 0.852995
thorax -2.9572 0.0599058 -1.6318
lowerneck -12.6295 -8.72901 -5.31685
upperneck 7.67968 -12.1929 11.964
head 5.46934 -5.3953 3.48659
rclavicle 1.21259e-014 0
rhumerus 8.35883 32.1365 -64.0293
rradius 71.7236
rwrist -4.10334
rhand -38.5431 38.0772
rfingers 7.12502
rthumb -11.5631 8.41614
lclavicle 1.21259e-014 0
lhumerus -27.1518 -2.73791 90.0487
lradius 49.6769
lwrist 33.0729
lhand -29.8425 14.4238
lfingers 7.12502
lthumb -3.16531 44.3801
rfemur -32.0274 2.03419 14.3562
rtibia 36.9802
rfoot -8.73442 -11.4632
rtoes 1.86655
lfemur -22.6414 11.7203 -26.1088
ltibia 42.0931
lfoot -21.6039 16.0822
ltoes -4.40551
1049
root 9.8668 17.2018 -0.901855 6.26631 7.67574 -0.294372
lowerback 20.0453 -0.700189 4.62263
upperback 7.64599 0.026125 0.825497
thorax -2.92824 0.0837846 -1.75273
lowerneck -12.8147 -8.77741 -5.54528
upperneck 8.10832 -12.3046 12.309
head 5.68283 -5.41112 3.6041
rclavicle -4.77083e-015 2.46493e-014
rhumerus 8.57353 31.6573 -63.9925
rradius 70.8651
rwrist -4.50319
rhand -38.274 38.1761
rfingers 7.12502
rthumb -11.3035 8.50066
lclavicle -4.77083e-015 2.46493e-014
lhumerus -27.0352 -3.28811 90.0783
lradius 51.0495
lwrist 32.9338
lhand -30.1381 14.0465
lfingers 7.12502
lthumb -3.45082 43.9983
rfemur -33.2708 1.85838 14.2049
rtibia 37.9384
rfoot -8.72565 -11.0685
rtoes 0.144406
lfemur -23.8066 11.836 -26.446
ltibia 43.252
lfoot -22.4238 15.9163
ltoes -4.02349
1050
root 9.86146 17.1472 -0.94266 6.76754 7.19268 -0.274189
lowerback 20.6577 -0.617331 4.65461
upperback 7.66578 0.177689 0.931286
thorax -3.21017 0.150894 -1.693
lowerneck -12.8814 -8.74277 -5.69052
upperneck 8.59108 -12.2838 12.3273
head 5.85301 -5.38321 3.62726
rclavicle -1.39149e-014 -7.55382e-015
rhumerus 8.86573 31.4291 -63.7484
rradius 69.6609
rwrist -4.82347
rhand -38.0176 38.8526
rfingers 7.12502
rthumb -11.0562 9.16383
lclavicle -1.39149e-014 -7.55382e-015
lhumerus -27.1054 -3.78475 90.2281
lradius 52.0275
lwrist 32.873
lhand -30.5545 13.0638
lfingers 7.12502
lthumb -3.85293 43.0087
rfemur -34.6402 1.9106 14.1888
rtibia 38.9241
rfoot -8.65974 -10.7046
rtoes -1.4832
lfemur -25.0039 12.1239 -26.6718
ltibia 44.2539
lfoot -23.0913 16.0119
ltoes -3.16767
1051
root 9.85398 17.1031 -0.988048 7.23387 6.71481 -0.296325
lowerback 21.3412 -0.519523 4.69678
upperback 7.72629 0.354658 1.04684
thorax -3.48147 0.23104 -1.63661
lowerneck -12.9225 -8.67043 -5.44566
upperneck 8.70553 -12.193 11.9994
head 5.84879 -5.3471 3.49502
rclavicle 1.86858e-014 6.36111e-015
rhumerus 9.22017 31.0497 -63.5324
rradius 68.5141
rwrist -4.79864
rhand -37.9732 39.4427
rfingers 7.12502
rthumb -11.0134 9.75159
lclavicle 1.86858e-014 6.36111e-015
lhumerus -27.1205 -4.16334 90.3481
lradius 52.9328
lwrist 33.0438
lhand -30.6589 12.8725
lfingers 7.12502
lthumb -3.95376 42.8155
rfemur -36.0591 1.92767 14.2342
rtibia 39.9392
rfoot -8.49362 -10.3269
rtoes -1.41156
lfemur -26.2199 12.5514 -26.8846
ltibia 45.1362
lfoot -23.3846 16.2537
ltoes -3.1177
1052
root 9.85521 17.0583 -1.03572 7.69605 6.35607 0.0289888
lowerback 21.9154 -0.463716 4.65551
upperback 7.92406 0.439372 0.950551
thorax -3.55178 0.2746 -1.73881
lowerneck -12.8224 -8.55542 -5.10411
upperneck 8.51529 -12.0599 11.8713
head 5.73135 -5.29094 3.42324
rclavicle 1.19271e-014 -1.66979e-014
rhumerus 9.55746 30.3271 -63.6071
rradius 67.5239
rwrist -4.56993
rhand -37.6983 39.651
rfingers 7.12502
rthumb -10.7483 9.94594
lclavicle 1.19271e-014 -1.66979e-014
lhumerus -26.9184 -4.62131 90.2752
lradius 54.015
lwrist 33.1437
lhand -30.2271 13.7183
lfingers 7.12502
lthumb -3.53674 43.6687
rfemur -37.407 1.52284 13.9755
rtibia 40.9716
rfoot -8.34897 -9.77516
rtoes -1.81439
lfemur -27.2496 12.9065 -27.5068
ltibia 45.938
lfoot -23.794 16.219
ltoes -2.33452
1053
root 9.86229 17.0042 -1.08403 8.12953 6.10654 0.5725
lowerback 22.4156 -0.534285 4.4879
upperback 8.18026 0.323397 0.747562
thorax -3.53275 0.223178 -1.83489
lowerneck -12.68 -8.32977 -4.55757
upperneck 8.38171 -11.7995 11.6
head 5.59285 -5.17523 3.29021
rclavicle 1.43125e-014 5.56597e-015
rhumerus 10.1251 29.9197 -63.698
rradius 66.4874
rwrist -4.80566
rhand -37.6347 39.4044
rfingers 7.12502
rthumb -10.687 9.69619
lclavicle 1.43125e-014 5.56597e-015
lhumerus -26.5549 -5.0256 90.0466
lradius 54.8715
lwrist 33.1871
lhand -30.1041 13.7121
lfingers 7.12502
lthumb -3.41795 43.6645
rfemur -38.6398 1.0075 13.4579
rtibia 42.0619
rfoot -8.54885 -9.20341
rtoes -2.39383
lfemur -28.159 12.9861 -28.3426
ltibia 46.7445
lfoot -24.3201 16.1775
ltoes -1.35994
1054
root 9.8614 16.9494 -1.13004 8.48728 5.89992 0.953769
lowerback 23.0035 -0.631856 4.2926
upperback 8.44578 0.17844 0.689093
thorax -3.54829 0.154561 -1.75206
lowerneck -12.6908 -8.25074 -4.49162
upperneck 8.42832 -11.713 11.6424
head 5.60135 -5.12637 3.30166
rclavicle -6.36111e-015 9.54166e-015
rhumerus 10.8787 29.8803 -63.5072
rradius 65.5065
rwrist -5.52827
rhand -38.0122 39.3279
rfingers 7.12502
rthumb -11.0511 9.63886
lclavicle -6.36111e-015 9.54166e-015
lhumerus -26.2654 -5.1842 89.9307
lradius 55.6689
lwrist 33.1658
lhand -29.8967 12.9513
lfingers 7.12502
lthumb -3.21766 42.9067
rfemur -39.7791 0.701327 13.0784
rtibia 43.1265
rfoot -8.8581 -8.78694
rtoes -2.06431
lfemur -29.1122 12.9968 -28.9478
ltibia 47.6329
lfoot -24.6395 16.316
ltoes -1.18644
1055
root 9.8548 16.8879 -1.17766 8.89987 5.74939 1.18296
lowerback 23.6875 -0.64092 4.31664
upperback 8.67844 0.20475 0.72964
thorax -3.63162 0.169379 -1.73043
lowerneck -13.0547 -8.3852 -4.75099
upperneck 8.61504 -11.8864 11.8201
head 5.76273 -5.1868 3.36277
rclavicle -9.14409e-015 -7.95139e-015
rhumerus 11.5255 29.3371 -63.1491
rradius 64.555
rwrist -5.53684
rhand -38.4255 39.3737
rfingers 7.12502
rthumb -11.4496 9.70639
lclavicle -9.14409e-015 -7.95139e-015
lhumerus -25.9301 -5.49442 90.0561
lradius 56.6749
lwrist 33.1347
lhand -28.8584 13.5982
lfingers 7.12502
lthumb -2.21495 43.5665
rfemur -41.0157 0.48569 12.8819
rtibia 44.0951
rfoot -8.90693 -8.57233
rtoes -2.3772
lfemur -30.2967 12.9622 -29.3848
ltibia 48.6934
lfoot -25.0444 16.3872
ltoes -0.713139
1056
root 9.8524 16.8343 -1.22644 9.32777 5.58713 1.05618
lowerback 24.1894 -0.675498 4.78226
upperback 8.97284 0.286186 0.801637
thorax -3.54415 0.221456 -1.94007
lowerneck -13.3887 -8.43216 -4.8474
upperneck 8.6181 -11.9391 11.9168
head 5.83687 -5.19687 3.38988
rclavicle 1.39149e-014 2.54444e-014
rhumerus 12.374 28.4861 -62.7445
rradius 63.4381
rwrist -5.08708
rhand -38.5117 39.1084
rfingers 7.12502
rthumb -11.5328 9.4457
lclavicle 1.39149e-014 2.54444e-014
lhumerus -25.4731 -5.79808 90.1001
lradius 57.7504
lwrist 33.067
lhand -27.9066 15.2335
lfingers 7.12502
lthumb -1.29575 45.2093
rfemur -42.2474 0.460279 13.0325
rtibia 44.9477
rfoot -8.76673 -8.47305
rtoes -3.62485
lfemur -31.6188 12.8886 -29.4462
ltibia 49.8799
lfoot -25.5737 16.433
ltoes 0.210369
1057
root 9.85177 16.7856 -1.27127 9.73521 5.29635 0.659898
lowerback 24.5293 -0.713464 5.37011
upperback 9.30673 0.38178 0.897304
thorax -3.32618 0.286478 -2.19651
lowerneck -13.349 -8.44382 -5.29408
upperneck 8.40736 -11.9481 12.6245
head 5.84231 -5.17849 3.68248
rclavicle -2.98177e-014 -1.74931e-014
rhumerus 13.3025 27.8286 -62.4526
rradius 62.3083
rwrist -4.96788
rhand -38.4386 39.0691
rfingers 7.12502
rthumb -11.4623 9.40243
lclavicle -2.98177e-014 -1.74931e-014
lhumerus -24.9927 -5.95555 89.934
lradius 58.5281
lwrist 32.786
lhand -27.3328 16.1535
lfingers 7.12502
lthumb -0.741532 46.1319
rfemur -43.3986 0.626678 13.4269
rtibia 45.7562
rfoot -8.88942 -8.35092
rtoes -4.01328
lfemur -32.9555 12.9714 -29.2644
ltibia 51.0544
lfoot -25.7751 16.7499
ltoes 0.13454
1058
root 9.85174 16.718 -1.31597 10.2331 4.98218 0.643835
lowerback 25.0627 -0.687754 5.69743
upperback 9.47686 0.513916 0.864222
thorax -3.37975 0.358578 -2.45679
lowerneck -13.3407 -8.5634 -5.61751
upperneck 8.41916 -12.1251 13.152
head 5.91908 -5.23941 3.87752
rclavicle 9.54166e-015 -3.02153e-014
rhumerus 13.764 26.9948 -62.4198
rradius 61.3983
rwrist -4.78945
rhand -38.5612 39.6018
rfingers 7.12502
rthumb -11.5805 9.94175
lclavicle 9.54166e-015 -3.02153e-014
lhumerus -24.6329 -6.33278 89.8666
lradius 59.0111
lwrist 32.9809
lhand -27.5029 15.2543
lfingers 7.12502
lthumb -0.90579 45.2321
rfemur -44.6896 0.612867 13.4269
rtibia 46.6244
rfoot -9.12579 -8.11736
rtoes -3.50542
lfemur -34.2905 13.0906 -29.5732
ltibia 52.0849
lfoot -25.7803 17.2802
ltoes -0.795358
